# xmcd
#
# Track frame offsets: 
#        183
#        18568
#        41028
#        68238
#        86173
#        109223
#        135980
#        167488
#        189490
#        218418
#        256188
#        281260
#        301708
#        325118
#
# Disc length: 4706 seconds
#
# Revision: 0
# Processed by: cddbd v1.5.2PL0 Copyright (c) Steve Scherf et al.
# Submitted via: ExactAudioCopy v0.99pb4
#
DISCID=b512600e
DTITLE=Various Artist - Techno Tunes - A History of Techno - Volume 3
DYEAR=1993
DGENRE=Electronic
TTITLE0=Modular Expansion - Cubes 
TTITLE1=The Prodigy - Android 
TTITLE2=Ramirez - La Musika Tremenda 
TTITLE3=Lil' Louis - I Called U 
TTITLE4=Outlander - Vamp 
TTITLE5=Speedy J - Pullover 
TTITLE6=Richie Rich - Salsa House 
TTITLE7=Liaisons D - He Chilled Out 
TTITLE8=Jamie Principle - Baby Wants to Ride 
TTITLE9=Tricky Disco - Disco 
TTITLE10=John and Julie - Circles (Round and Round) 
TTITLE11=Set up System - Fairy Dust 
TTITLE12=U.H.F. - U.H.F. 
TTITLE13=Rhythim Is Rhythim - Strings of Life 
EXTD=
EXTT0=
EXTT1=
EXTT2=
EXTT3=
EXTT4=
EXTT5=
EXTT6=
EXTT7=
EXTT8=
EXTT9=
EXTT10=
EXTT11=
EXTT12=
EXTT13=
PLAYORDER=
